<?xml version="1.0" standalone="no"?>
<!DOCTYPE svg PUBLIC "-//W3C//DTD SVG 20010904//EN"
 "http://www.w3.org/TR/2001/REC-SVG-20010904/DTD/svg10.dtd">
<svg version="1.0" xmlns="http://www.w3.org/2000/svg"
 width="8000.000000pt" height="5331.000000pt" viewBox="0 0 8000.000000 5331.000000"
 preserveAspectRatio="xMidYMid meet">

<g transform="translate(0.000000,5331.000000) scale(0.100000,-0.100000)"
fill="#000000" stroke="none">
<path d="M74615 39901 c-82 -22 -4029 -1071 -8770 -2330 -7888 -2097 -8628
-2295 -8710 -2335 -163 -81 -270 -188 -351 -351 -64 -130 -78 -195 -79 -350 0
-93 5 -148 18 -195 27 -103 98 -237 164 -309 48 -54 4325 -4041 4357 -4063 6
-4 -103 -753 -313 -2133 -261 -1717 -322 -2137 -317 -2182 14 -117 93 -225
204 -280 51 -25 67 -28 159 -28 l103 0 1670 835 1670 835 57 -56 c82 -80 4358
-4055 4416 -4106 112 -97 284 -162 453 -170 343 -17 642 173 767 487 54 138
5519 15766 5532 15824 19 81 19 249 -1 339 -8 40 -38 119 -66 177 -45 93 -61
115 -147 200 -75 75 -114 105 -180 139 -133 69 -186 82 -346 87 -138 4 -142 4
-290 -35z m394 -186 c279 -66 475 -350 434 -627 -13 -87 -5490 -15754 -5553
-15883 -107 -222 -362 -349 -601 -302 -125 24 -209 71 -331 181 -493 450
-5332 4963 -5328 4971 2 6 2156 2120 4785 4698 2629 2579 4801 4711 4828 4737
42 44 47 53 47 95 0 38 -5 52 -30 77 -27 26 -36 29 -78 26 -43 -3 -525 -311
-5921 -3776 -3231 -2075 -5877 -3772 -5881 -3772 -9 0 -4232 3927 -4306 4005
-67 71 -113 150 -140 240 -25 85 -23 230 5 315 47 149 163 284 295 346 52 24
2374 645 8801 2352 4802 1276 8741 2322 8755 2325 55 10 158 6 219 -8z m-2811
-2948 c-81 -78 -2078 -2036 -4438 -4352 -2360 -2315 -4294 -4210 -4298 -4210
-13 0 -1907 1764 -1907 1776 0 10 10763 6927 10780 6928 6 0 -56 -64 -137
-142z m-9828 -7848 c503 -468 921 -857 929 -864 11 -11 -164 -208 -1098 -1232
-611 -670 -1126 -1228 -1143 -1241 -66 -47 -129 -41 -189 19 -35 35 -39 44
-39 90 0 37 469 3158 607 4042 3 20 8 37 12 37 3 0 418 -383 921 -851z m1488
-1385 c210 -195 382 -358 382 -362 0 -9 -2611 -1315 -2617 -1309 -4 5 1838
2027 1847 2027 3 0 178 -160 388 -356z"/>
<path d="M32820 29309 c-66 -13 -94 -48 -87 -113 3 -37 11 -55 30 -71 23 -21
37 -22 288 -27 287 -6 304 -4 327 47 7 14 12 36 12 48 0 34 -34 82 -66 94 -70
27 -404 41 -504 22z"/>
<path d="M31630 28926 c-63 -35 -161 -98 -217 -140 -84 -63 -104 -83 -113
-114 -20 -66 16 -116 91 -128 30 -5 48 4 145 69 62 41 157 100 213 132 56 32
108 67 116 78 8 12 15 41 15 65 0 35 -6 49 -29 73 -47 47 -85 41 -221 -35z"/>
<path d="M34260 28891 c-24 -12 -39 -30 -49 -57 -23 -65 -2 -95 137 -191 64
-45 150 -111 191 -147 83 -74 123 -88 176 -63 18 9 39 30 48 49 35 74 -2 123
-228 293 -113 85 -196 135 -224 135 -9 0 -32 -8 -51 -19z"/>
<path d="M30550 27972 c-36 -18 -185 -199 -281 -340 -62 -94 -65 -129 -13
-178 29 -28 43 -34 77 -34 54 1 69 14 154 135 39 55 102 141 142 190 61 78 71
96 71 130 0 49 -18 77 -64 99 -42 20 -43 20 -86 -2z"/>
<path d="M35332 27775 c-38 -17 -67 -74 -57 -113 3 -14 39 -80 79 -146 40 -67
94 -160 120 -208 26 -48 57 -94 69 -103 12 -8 41 -15 65 -15 61 0 102 41 102
101 0 47 -32 108 -178 348 -60 98 -82 126 -108 137 -41 17 -50 17 -92 -1z"/>
<path d="M29711 26633 c-21 -20 -56 -90 -119 -238 -110 -258 -106 -246 -88
-289 26 -61 108 -86 158 -46 17 13 60 96 128 250 114 257 117 275 59 324 -43
36 -99 35 -138 -1z"/>
<path d="M36010 26372 c-21 -10 -42 -32 -53 -54 l-18 -37 81 -243 c45 -134 89
-251 97 -260 60 -67 183 -21 185 69 1 35 -136 460 -158 492 -15 20 -69 51 -91
51 -4 0 -24 -8 -43 -18z"/>
<path d="M29213 25180 c-12 -5 -28 -19 -36 -32 -23 -36 -117 -446 -117 -510 0
-42 57 -98 99 -98 45 0 86 24 99 57 11 28 100 411 109 471 14 86 -69 146 -154
112z"/>
<path d="M36404 24861 c-55 -33 -55 -50 -9 -328 23 -138 47 -259 55 -268 20
-24 65 -45 96 -45 39 0 94 59 94 101 0 19 -18 139 -39 268 -37 231 -39 235
-70 263 -37 33 -82 37 -127 9z"/>
<path d="M59234 24454 c-189 -128 -301 -212 -308 -230 -15 -40 -6 -92 23 -123
24 -26 37 -31 73 -31 39 0 61 13 242 140 109 76 204 147 211 157 49 72 13 151
-77 168 -32 6 -46 -1 -164 -81z"/>
<path d="M28979 23636 c-46 -26 -51 -54 -57 -315 -4 -220 -3 -247 13 -277 33
-61 117 -70 166 -18 23 24 24 35 31 182 3 86 7 207 7 269 1 103 -1 114 -22
138 -28 33 -98 43 -138 21z"/>
<path d="M58070 23637 c-14 -7 -112 -70 -217 -141 -216 -145 -235 -166 -214
-238 13 -43 58 -78 102 -78 27 0 220 119 376 231 67 49 85 67 94 97 16 54 -8
107 -55 127 -42 18 -53 18 -86 2z"/>
<path d="M36574 23321 c-52 -22 -54 -36 -54 -314 0 -224 2 -263 17 -287 32
-55 112 -67 160 -26 l28 24 0 276 0 276 -26 26 c-28 28 -89 40 -125 25z"/>
<path d="M56765 22766 c-16 -8 -113 -68 -215 -134 -151 -98 -188 -126 -204
-157 -16 -32 -17 -43 -7 -76 15 -49 44 -69 101 -69 41 0 64 13 245 129 165
106 203 135 219 166 16 32 17 43 7 76 -19 62 -87 93 -146 65z"/>
<path d="M29041 22076 c-30 -17 -50 -53 -50 -91 -1 -16 17 -133 38 -259 37
-225 38 -230 70 -258 56 -50 145 -30 168 39 7 21 -2 95 -33 283 -40 237 -44
256 -69 277 -30 26 -86 30 -124 9z"/>
<path d="M55385 21889 c-164 -94 -345 -211 -360 -232 -8 -12 -15 -41 -15 -65
0 -60 35 -92 100 -92 40 0 65 11 186 81 176 104 281 174 294 198 5 11 10 38
10 61 0 33 -6 48 -29 71 -44 43 -79 39 -186 -22z"/>
<path d="M36476 21738 c-32 -33 -33 -34 -64 -268 -18 -129 -32 -246 -32 -260
0 -26 23 -66 50 -87 38 -30 122 -5 149 45 5 9 24 128 42 263 36 273 35 295
-22 324 -47 25 -87 19 -123 -17z"/>
<path d="M13425 21294 c-88 -8 -173 -20 -189 -26 -32 -13 -66 -62 -66 -96 0
-36 28 -80 62 -98 28 -15 44 -15 187 0 86 8 194 18 241 21 47 4 97 11 111 16
63 24 78 130 24 176 -23 21 -36 23 -118 22 -51 -1 -164 -8 -252 -15z"/>
<path d="M14781 21296 c-49 -27 -65 -94 -34 -147 24 -40 49 -47 213 -59 80 -5
188 -15 240 -21 84 -10 100 -10 128 5 56 29 79 107 46 154 -30 43 -62 50 -294
66 -266 19 -268 19 -299 2z"/>
<path d="M53920 21009 c-113 -66 -215 -131 -227 -145 -33 -36 -32 -106 2 -139
19 -20 34 -25 72 -25 42 0 70 13 261 122 190 108 216 126 229 157 30 71 -21
151 -96 151 -28 0 -83 -28 -241 -121z"/>
<path d="M11921 21041 c-206 -53 -226 -60 -252 -89 -41 -45 -40 -102 0 -143
45 -45 46 -45 340 31 205 53 228 61 253 89 15 17 28 43 28 57 0 60 -56 115
-117 113 -15 0 -129 -27 -252 -58z"/>
<path d="M16344 21085 c-36 -15 -52 -34 -64 -75 -12 -43 9 -94 48 -114 16 -8
103 -31 193 -51 90 -19 196 -45 235 -55 82 -23 108 -18 144 27 17 22 21 37 17
72 -3 24 -13 52 -24 63 -20 20 -249 86 -432 126 -73 16 -93 17 -117 7z"/>
<path d="M10600 20601 c-88 -33 -233 -97 -318 -140 -96 -48 -123 -102 -87
-171 36 -69 74 -66 281 23 93 40 195 84 228 97 90 36 118 98 76 168 -20 32
-55 52 -88 52 -9 -1 -51 -14 -92 -29z"/>
<path d="M17804 20602 c-30 -24 -44 -55 -44 -96 0 -57 38 -88 175 -141 66 -26
162 -69 213 -96 111 -59 147 -62 194 -20 28 25 33 36 33 74 0 31 -6 52 -20 67
-39 44 -444 230 -499 230 -17 0 -41 -8 -52 -18z"/>
<path d="M29415 20566 c-37 -16 -60 -43 -69 -78 -6 -28 38 -167 121 -373 53
-131 66 -153 101 -166 59 -23 142 30 142 90 0 43 -166 482 -192 507 -30 30
-66 37 -103 20z"/>
<path d="M52565 20230 c-115 -66 -220 -131 -232 -145 -33 -37 -30 -87 6 -127
26 -29 36 -33 78 -33 40 0 62 8 133 51 47 28 140 82 207 118 68 37 130 77 138
89 8 12 15 41 15 65 0 35 -6 49 -29 73 -53 52 -78 45 -316 -91z"/>
<path d="M36171 20214 c-24 -20 -37 -46 -57 -112 -14 -48 -46 -151 -70 -228
-52 -168 -54 -193 -16 -235 24 -26 36 -32 73 -33 74 -2 92 18 133 141 19 59
53 170 75 245 33 115 38 142 30 172 -21 75 -108 101 -168 50z"/>
<path d="M9129 19834 c-234 -151 -286 -190 -299 -229 -24 -74 22 -135 102
-135 36 0 63 14 207 108 91 60 183 119 204 131 50 31 67 57 67 109 0 62 -40
102 -103 102 -38 0 -61 -11 -178 -86z"/>
<path d="M19182 19855 c-45 -20 -68 -75 -53 -126 10 -32 30 -51 139 -130 70
-51 161 -119 203 -151 61 -47 83 -58 113 -58 82 0 130 61 106 134 -9 28 -46
61 -206 181 -233 175 -239 177 -302 150z"/>
<path d="M51200 19489 c-113 -61 -217 -123 -232 -137 -40 -37 -38 -89 3 -137
52 -59 77 -53 318 76 113 61 216 122 229 135 34 38 31 107 -7 145 -51 51 -78
43 -311 -82z"/>
<path d="M30019 19121 c-49 -50 -42 -94 37 -231 155 -268 205 -330 264 -330
29 0 76 26 94 52 30 43 20 78 -62 209 -43 68 -101 163 -130 211 -61 100 -81
118 -135 118 -29 0 -46 -7 -68 -29z"/>
<path d="M8006 18985 c-35 -18 -64 -44 -236 -203 -145 -135 -159 -152 -160
-194 0 -60 89 -119 147 -97 14 5 60 42 102 82 42 40 121 113 176 162 55 49
105 98 112 109 18 31 16 67 -6 100 -36 54 -83 68 -135 41z"/>
<path d="M20399 18885 c-15 -8 -34 -30 -43 -50 -25 -51 -8 -94 57 -149 29 -24
100 -86 160 -137 159 -139 186 -159 213 -159 39 0 80 26 97 63 34 71 1 114
-256 335 -136 116 -168 130 -228 97z"/>
<path d="M49809 18773 c-117 -59 -224 -117 -236 -129 -37 -37 -32 -97 11 -140
24 -24 43 -34 65 -34 37 0 443 199 484 238 39 37 39 102 -2 143 -51 50 -79 43
-322 -78z"/>
<path d="M35665 18771 c-38 -17 -62 -56 -165 -268 -92 -190 -102 -216 -95
-249 9 -51 54 -94 97 -94 67 0 92 28 169 187 126 264 141 302 134 339 -12 68
-82 110 -140 85z"/>
<path d="M48520 18141 c-58 -26 -160 -76 -228 -110 -109 -54 -125 -66 -138
-97 -9 -21 -13 -48 -9 -65 9 -40 58 -79 100 -79 47 0 451 191 488 231 31 33
35 74 12 119 -33 65 -84 65 -225 1z"/>
<path d="M6915 17885 c-35 -15 -92 -73 -201 -205 -132 -158 -154 -193 -154
-236 1 -60 46 -104 107 -104 44 1 65 18 153 130 46 58 114 140 152 184 80 91
90 111 77 158 -17 65 -78 98 -134 73z"/>
<path d="M30952 17873 c-36 -17 -62 -58 -62 -96 0 -32 62 -115 191 -257 144
-157 171 -180 215 -180 54 0 104 53 104 109 0 37 -7 49 -63 109 -34 37 -110
122 -170 189 -59 67 -117 125 -130 128 -12 4 -29 8 -37 10 -8 3 -30 -3 -48
-12z"/>
<path d="M21554 17830 c-52 -21 -78 -90 -51 -135 16 -25 334 -337 367 -359 41
-27 87 -21 126 18 27 27 34 42 34 72 0 35 -10 48 -172 211 -199 200 -233 222
-304 193z"/>
<path d="M47000 17445 c-247 -110 -275 -130 -275 -201 0 -39 5 -50 33 -75 22
-19 43 -29 65 -29 29 0 414 163 475 201 31 19 55 74 47 108 -8 39 -55 81 -96
87 -28 4 -75 -13 -249 -91z"/>
<path d="M34897 17399 c-9 -6 -45 -52 -79 -102 -34 -51 -95 -139 -136 -197
-41 -57 -79 -117 -85 -133 -15 -44 6 -103 45 -123 38 -20 101 -14 130 13 28
25 268 380 280 414 29 84 -78 173 -155 128z"/>
<path d="M45632 16841 c-89 -39 -189 -80 -222 -92 -103 -37 -138 -95 -103
-167 13 -28 28 -41 58 -51 40 -14 42 -13 220 59 269 108 300 123 320 166 32
67 -6 135 -81 149 -22 4 -70 -12 -192 -64z"/>
<path d="M32061 16786 c-46 -26 -65 -95 -38 -143 7 -12 102 -89 212 -172 181
-136 204 -151 241 -151 51 0 90 32 99 82 12 63 -9 88 -180 219 -88 67 -176
135 -195 150 -39 32 -97 38 -139 15z"/>
<path d="M22654 16726 c-36 -36 -44 -74 -21 -111 7 -11 91 -98 188 -192 l177
-173 51 0 c42 0 56 5 83 29 26 23 32 36 31 65 -1 20 -8 47 -16 60 -17 25 -326
311 -367 339 -41 28 -87 22 -126 -17z"/>
<path d="M5968 16649 c-30 -12 -85 -85 -222 -298 -75 -117 -86 -140 -86 -178
0 -63 40 -103 102 -103 24 0 53 7 65 15 12 8 45 54 74 102 28 49 87 140 131
204 66 99 78 123 78 158 0 74 -73 126 -142 100z"/>
<path d="M44130 16229 c-123 -49 -234 -96 -247 -104 -12 -8 -27 -32 -34 -54
-17 -56 8 -104 65 -126 l43 -17 229 91 c125 50 238 98 251 106 12 8 27 32 34
54 16 54 -8 104 -62 125 -22 9 -43 16 -47 16 -4 -1 -108 -41 -232 -91z"/>
<path d="M33786 16010 l-174 -172 -84 46 c-104 56 -145 60 -189 17 -23 -24
-29 -38 -29 -75 0 -62 21 -82 175 -164 320 -171 334 -175 391 -118 56 56 44
137 -26 166 -16 7 -30 15 -30 17 0 3 55 63 122 135 67 71 130 141 140 156 43
65 2 148 -80 159 l-43 6 -173 -173z"/>
<path d="M42660 15689 c-129 -44 -245 -89 -256 -100 -67 -63 -12 -179 85 -179
45 0 468 153 496 180 31 30 38 63 21 104 -15 37 -46 62 -86 70 -16 3 -112 -25
-260 -75z"/>
<path d="M23829 15699 c-34 -37 -46 -87 -27 -121 22 -40 386 -327 424 -334 44
-8 105 22 123 60 10 22 11 37 3 65 -9 30 -42 61 -182 176 -229 187 -226 185
-272 185 -32 0 -46 -6 -69 -31z"/>
<path d="M5148 15283 c-39 -41 -238 -447 -238 -484 0 -48 56 -99 108 -99 24 0
48 7 60 18 11 9 70 114 131 233 127 247 134 277 82 330 -41 41 -106 41 -143 2z"/>
<path d="M41385 15299 c-16 -6 -127 -35 -245 -65 -141 -36 -222 -61 -234 -73
-11 -12 -21 -39 -23 -68 -4 -41 -1 -54 18 -77 39 -44 73 -43 302 13 240 59
280 73 302 108 35 53 9 134 -50 159 -19 8 -36 14 -37 13 -2 0 -16 -5 -33 -10z"/>
<path d="M34805 15293 c-49 -12 -89 -80 -79 -133 4 -17 20 -41 35 -55 33 -27
447 -165 497 -165 37 0 86 39 99 78 12 33 0 83 -24 105 -15 13 -490 179 -504
176 -2 -1 -13 -4 -24 -6z"/>
<path d="M32804 15121 c-12 -5 -73 -47 -135 -93 -63 -46 -149 -108 -191 -138
-93 -64 -116 -102 -99 -160 14 -47 48 -70 105 -70 37 0 58 9 132 58 140 92
307 220 321 245 7 12 12 40 13 63 0 31 -6 46 -28 68 -31 29 -84 41 -118 27z"/>
<path d="M39621 14926 c-211 -32 -214 -32 -242 -64 -56 -62 -26 -157 56 -178
16 -4 123 9 263 32 230 37 238 39 270 70 73 72 20 175 -88 173 -25 -1 -141
-15 -259 -33z"/>
<path d="M36293 14890 c-64 -39 -73 -112 -20 -165 29 -29 41 -33 122 -44 50
-6 133 -18 185 -26 181 -27 214 -29 248 -11 78 40 81 164 5 194 -15 7 -89 19
-163 27 -74 9 -173 22 -220 30 -109 19 -119 19 -157 -5z"/>
<path d="M25100 14791 c-47 -46 -52 -103 -13 -149 10 -12 108 -74 218 -139
180 -106 205 -117 248 -118 42 0 52 4 78 33 35 39 38 87 9 125 -12 15 -62 51
-113 81 -51 29 -144 86 -207 125 -135 83 -172 91 -220 42z"/>
<path d="M38053 14791 l-203 -6 -27 -28 c-23 -23 -28 -36 -28 -77 0 -41 5 -54
28 -77 l28 -28 257 3 c144 1 268 7 283 13 63 25 77 126 25 178 -30 30 -50 31
-363 22z"/>
<path d="M31410 14263 c-41 -19 -140 -64 -220 -100 -80 -35 -153 -74 -162 -86
-42 -53 -8 -147 60 -167 35 -11 46 -9 124 23 191 79 376 174 394 203 29 43 24
97 -11 134 -39 41 -87 39 -185 -7z"/>
<path d="M26513 14105 c-58 -25 -81 -109 -43 -157 29 -38 434 -198 500 -198
76 0 132 68 110 135 -6 18 -19 40 -29 49 -10 9 -83 38 -162 65 -79 27 -183 65
-231 85 -97 40 -100 41 -145 21z"/>
<path d="M4520 13883 c-29 -15 -41 -33 -76 -113 -23 -52 -58 -140 -78 -194
-37 -98 -37 -99 -21 -142 21 -55 69 -81 119 -64 19 6 41 18 49 28 9 9 50 99
92 200 70 168 75 186 65 216 -23 71 -88 100 -150 69z"/>
<path d="M30025 13778 c-22 -5 -134 -24 -249 -42 -205 -32 -210 -34 -238 -65
-33 -37 -37 -82 -9 -127 37 -60 57 -61 294 -20 117 20 229 41 249 47 50 13 88
60 88 108 0 72 -59 115 -135 99z"/>
<path d="M27984 13676 c-24 -24 -34 -43 -34 -65 0 -41 22 -84 52 -98 32 -17
195 -40 372 -54 136 -11 151 -11 181 5 54 30 70 92 38 147 -21 36 -49 46 -148
54 -44 4 -145 15 -225 26 -195 25 -196 25 -236 -15z"/>
</g>
</svg>
